<?xml version="1.0" encoding="UTF-8" standalone="no"?>
<!-- Created with Inkscape (http://www.inkscape.org/) -->

<svg
   width="512"
   height="512"
   viewBox="0 0 512 512"
   version="1.1"
   id="svg1"
   xml:space="preserve"
   xmlns="http://www.w3.org/2000/svg"
   xmlns:svg="http://www.w3.org/2000/svg"><defs
     id="defs1"><linearGradient
       id="swatch1"><stop
         style="stop-color:#000000;stop-opacity:1;"
         offset="0"
         id="stop1" /></linearGradient></defs><g
     id="layer3"
     transform="matrix(-0.99470281,0.10279253,0.10279253,0.99470281,484.89388,-25.269216)"><path
       style="opacity:1;fill:#ff2424;fill-opacity:1;stroke:#000000;stroke-width:6;stroke-dasharray:none;stroke-opacity:1"
       d="m 115.57047,293.55704 0.80537,43.08725 -4.83222,11.67786 -9.26174,14.49664 -4.429531,12.48322 -6.845638,6.04027 -4.42953,10.87248 -6.442953,12.88591 -8.456376,10.87248 -6.040268,11.67786 -3.221477,10.06711 2.013423,11.67785 2.17953,7.19296 3.458054,11.33053 5.637584,8.45638 9.261745,8.45637 10.067114,6.84564 H 146.1745 l 8.45637,-5.63758 6.84564,-7.24832 10.4698,-6.84564 12.8859,-0.40269 12.48323,8.45638 10.46979,6.04027 15.7047,4.42953 15.30202,5.2349 16.10738,1.20805 15.30201,-2.41611 18.92618,-7.651 14.49664,-6.84564 10.06711,-11.67785 7.24833,-19.73155 4.02684,-49.93288 -1.20805,-36.24161 -6.04027,-12.08054 -11.27517,-20.9396 -9.26174,-16.10738 -14.09396,-18.92617 -21.05537,-17.99665 z"
       id="path58" /><path
       style="opacity:1;fill:#ff2424;fill-opacity:1;stroke:#000000;stroke-width:6;stroke-dasharray:none;stroke-opacity:1"
       d="m 89.770001,261.00077 -11.915077,-13.24187 1.433961,-9.1341 3.486881,-8.64278 -5.02874,-8.35812 -11.000129,-11.86426 -17.030762,-15.83234 -8.338365,-13.67153 -2.396359,-15.99996 2.160816,-23.88604 7.906298,-6.31531 11.599338,3.45702 6.521467,7.81815 8.102823,5.52969 7.857166,-3.9676 0.883971,-15.15269 -5.859061,-15.7349 1.971477,-16.773491 8.275168,-13.552014 10.748322,-13.677852 9.218954,-7.442953 9.9136,1.026845 6.73489,8.941275 2.079,16.539496 10.2349,1.568792 9.94127,-3.458054 6.84564,-9.624161 5.74832,-9.387584 2.61074,-12.760067 8.95638,-11.372483 12.21979,-8.817114 23.99665,-17.275168 22.02517,-2.345637 18.69966,2 12.05369,8.942953 3.65101,9.095637 -4.63926,15.857383 -10.06729,8.142143 -6.37399,11.131347 0.86074,9.620805 5.04027,7.124161 14.05369,1.095638 18.06208,0.763423 15.7047,-4.832215 8.60906,-13.122483 6.10906,-16.011745 10.55369,-12.538591 17.30369,-4.761745 14.03691,0.347316 10.15101,12.345637 4.72148,9.969799 16.82886,4.458053 17.45469,-5.595637 12.59396,-9.234899 13.46645,-7.624162 14.19295,-4.874161 13.53859,2.110739 10.49832,8.026845 2.81879,9.66443 0.40269,9.664429 -7.24832,8.859061 -10.4698,4.832214 -10.06712,6.845638 -13.28859,6.845638 -2.01342,6.040269 2.01342,10.4698 12.48323,-0.40269 h 13.69127 l 5.2349,4.83222 1.20805,11.27517 -6.84563,12.08053 -8.59564,9.35906 -13.74665,8.7349 -13.73322,4.20638 -17.46644,1.20805 -7.33054,0.95806 -1.40346,14.0451 -2.89637,12.65171 -4.55586,19.07764 -8.25749,15.37601 -10.82015,17.08446 -0.28474,13.09809 9.68119,21.07083 7.68801,14.23705 7.40326,15.09127 5.12534,27.61988 -10.25068,15.66075 -9.11171,8.82697 -8.25749,4.55586 -5.12533,5.41008 -3.70164,5.69482 -0.28474,8.54223 -2.56267,6.54904 -5.41008,6.54904 -13.9523,3.13215 -10.53542,-1.13896 -3.98637,-21.07083 -6.83379,-20.7861 -16.23023,-29.61306 -17.93869,-30.46728 -25.62669,-7.40327 h -28.75883 l -20.21661,1.70845 -41.28745,-4.27112 -35.02314,-7.11852 z"
       id="path59" /><path
       style="opacity:1;fill:#e9e9e9;fill-opacity:1;stroke:#000000;stroke-width:6;stroke-dasharray:none;stroke-opacity:1"
       d="m 244,178 0.5,-20 7.5,-9 h 15 l 7.5,-9.5 2.5,-10 5.5,-6 10.5,-11.5 12,-4 13,-1 9.5,-6 8.5,2.5 13,4.5 5.5,5.5 4.5,13.5 -1.5,5.5 -40.5,-0.5 -10,7.5 h -9 l -9,9.5 -10.5,13 -8,9 -6,9.5 -14.5,2 z"
       id="path54" /><path
       style="opacity:1;fill:#e9e9e9;fill-opacity:1;stroke:#000000;stroke-width:6;stroke-dasharray:none;stroke-opacity:1"
       d="m 393,173.5 7.875,6.375 5.875,9.125 7.375,15.25 5.625,13.875 4.5,11.125 5.125,13 3.75,11.5 8.25,6.75 5.25,8.875 L 446,292.5 441.125,301.375 436.5,314 l -7.5,9.5 -7,11 -11.125,10.875 -18.375,8.125 -12.5,1.5 1,-7 7,-8 0.5,-22 -4,-13 -7,-11.5 -7,-13 -5,-14.5 -6,-9 -0.5,-16.5 6,-7.5 4,-8 7,-12 6,-6.5 4,-11.5 0.5,-9 z"
       id="path55" /><path
       style="opacity:1;fill:none;fill-opacity:1;stroke:#000000;stroke-width:6;stroke-dasharray:none;stroke-opacity:1"
       d="m 144.15009,313.52615 8.27286,5.11134 6.91517,8.83218 3.19566,8.02764 2.33125,8.75454 3.98637,13.66757 3.13322,12.66117 1.47047,9.67127 1.37587,11.55174 -0.56948,18.50816 -0.28474,21.92506 -0.56948,17.65394 3.8071,11.78378 7.92754,10.83901"
       id="path60" /><path
       style="opacity:1;fill:none;fill-opacity:1;stroke:#000000;stroke-width:6;stroke-dasharray:none;stroke-opacity:1"
       d="m 198.97079,291.70109 -7.05537,15.53443 -3.18066,16.80771 0.61825,12.31643"
       id="path61" /><path
       style="opacity:1;fill:none;fill-opacity:1;stroke:#000000;stroke-width:6;stroke-dasharray:none;stroke-opacity:1"
       d="m 218.52859,292.38014 10.6879,7.16738 1.99319,8.25749 -1.73329,11.09366 -5.33178,11.79583 -2.93683,10.05198 -3.847,10.5524 -3.5203,14.59329 -3.00521,15.67211 -2.37296,15.47449 -4.30302,13.84247 -2.27793,15.09127 -1.44868,16.3211 2.70884,13.98733 8.72407,9.34432 11.95359,7.39791 10.71082,4.00227 15.95997,0.16767 15.37725,-2.42387"
       id="path62" /><path
       style="opacity:1;fill:none;fill-opacity:1;stroke:#000000;stroke-width:6;stroke-dasharray:none;stroke-opacity:1"
       d="M 245.38909,177.98223 227.25,187 l -7.25,8 -8.5,9.75 -13,9.75 -8.5,7.25 -13,14.25 -4.37868,6.67157"
       id="path65" /><g
       id="g58"
       style="display:inline"><path
         style="display:inline;opacity:1;fill:#ffe905;fill-opacity:1;stroke:#000000;stroke-width:6;stroke-dasharray:none;stroke-opacity:1"
         d="M 75.5,287 H 107 l 3.5,4.5 10.5,1 35.5,0.5 16.5,6 7.5,-1.5 2,-5 6,-4 6.5,2 12.5,2 h 8.5 l 2.5,-7.5 4.5,-4.5 9.5,-5.5 11,-1 3.5,-14 -9.5,-6 -18,1 -4,-11.5 -12.5,-8 h -21 l -15,10.5 -11,6.7019 -20.37868,0.82843 -16.17678,-3.46967 -17.65165,-2.40901 L 88,254.5 77.5,269 73,279.5 Z"
         id="path56" /><path
         style="display:inline;opacity:1;fill:#ffe905;fill-opacity:1;stroke:#000000;stroke-width:6;stroke-dasharray:none;stroke-opacity:1"
         d="M 107.21526,287.48297 134,272.5 l 26.5,-3.5 31.5,-3 13,-4.5 14.54904,-6.70504"
         id="path57" /></g><path
       style="display:inline;opacity:1;fill:#000000;fill-opacity:1;stroke:#000000;stroke-width:6;stroke-dasharray:none;stroke-opacity:1"
       d="m 281.60883,195.9018 4.81094,-8.57189 3.38724,-3.85883 5.14491,-5.25288 4.02611,-5.38042 6.26431,-5.97956 10.82015,-2.84741 6.54905,3.41689 5.12533,5.41008 1.70845,11.1049 -0.28474,9.68119 -5.12534,4.55586 -6.2643,5.41007 H 295.2764 l -10.25067,-1.13896 z"
       id="path63" /><path
       style="opacity:1;fill:none;fill-opacity:1;stroke:#000000;stroke-width:6;stroke-dasharray:none;stroke-opacity:1"
       d="m 283.08237,197.69922 -10.58525,1.33473 -13.09808,4.27111 -11.38964,6.54905 -7.11853,9.39645 -12.24386,7.40326 -15.66075,6.83379 -6.40074,6.09701"
       id="path64" /><path
       style="opacity:1;fill:none;fill-opacity:1;stroke:#000000;stroke-width:6;stroke-dasharray:none;stroke-opacity:1"
       d="m 217.5,195.75 -11.26736,-4.71184 -9.72713,-6.73186 -15.17513,-12.42533 -9.62641,-11.75376"
       id="path66" /><path
       style="opacity:1;fill:none;fill-opacity:1;stroke:#000000;stroke-width:6;stroke-dasharray:none;stroke-opacity:1"
       d="m 249.5,154 -16.00655,-8.82974 -9.73093,-9.12981 -8.66134,-10.13096"
       id="path67" /><path
       style="opacity:1;fill:none;fill-opacity:1;stroke:#000000;stroke-width:6;stroke-dasharray:none;stroke-opacity:1"
       d="m 359.45841,131.94159 9.65133,5.94423 13.08148,10.96016 7.42462,15.9099 1.97855,11.67767"
       id="path68" /><path
       style="opacity:1;fill:none;fill-opacity:1;stroke:#000000;stroke-width:6;stroke-dasharray:none;stroke-opacity:1"
       d="m 312.01087,350.54818 10.07627,-0.53032 10.25305,3.88908 5.3033,3.88909 7.77817,3.88909 7.07107,1.06066 4.59619,-0.70711 11.66727,-3.53553 14.94646,-5.16054"
       id="path69" /><path
       style="opacity:1;fill:none;fill-opacity:1;stroke:#000000;stroke-width:6;stroke-dasharray:none;stroke-opacity:1"
       d="m 290.26733,310.59666 11.31371,-9.01562 3.18198,-14.84924 v -12.72792 l -3.18198,-11.31371 -8.13173,-6.36396 -4.94974,-10.07627"
       id="path70" /><path
       style="opacity:1;fill:none;fill-opacity:1;stroke:#000000;stroke-width:6;stroke-dasharray:none;stroke-opacity:1"
       d="m 304.76303,276.30197 4.94974,-8.66205 3.53553,-8.83884 8.30851,-14.67246"
       id="path71" /></g></svg>
