<?xml version="1.0" encoding="UTF-8" standalone="no"?>
<!-- Created with Inkscape (http://www.inkscape.org/) -->

<svg
   width="512"
   height="512"
   viewBox="0 0 512 512"
   version="1.1"
   id="svg1"
   xml:space="preserve"
   xmlns="http://www.w3.org/2000/svg"
   xmlns:svg="http://www.w3.org/2000/svg"><defs
     id="defs1"><linearGradient
       id="swatch1"><stop
         style="stop-color:#000000;stop-opacity:1;"
         offset="0"
         id="stop1" /></linearGradient></defs><g
     id="layer1"
     style="opacity:1"
     transform="matrix(1.0004646,0,0,0.94905519,4.4890296,4.4717636)"><path
       style="opacity:1;fill:#f3f3f3;fill-opacity:1;stroke:#000000;stroke-width:6"
       d="m 133,197.5 -26.5,82 -14.5,17 3.5,22 25.5,39 42,16 14.5,-60.5 -3.5,-69 z"
       id="path7" /><path
       style="opacity:1;fill:#ff5757;fill-opacity:1;stroke:#000000;stroke-width:6"
       d="m 131,200.5 26.5,45 10,35 -17.5,62.5 10.5,27.5 14.25,20.5 10.25,20.5 25,3.5 22.5,73.5 45.5,18 56,-22 14.5,-14.5 26.5,15 53,-4 22.5,-43 -12,-40.5 -29,-38 -19,-45.5 V 283.5 L 408,249 l 11.5,-11.5 1.5,-33 25,-38 -4.5,-42 -11,-9.5 -20,25 -4,-36.5 -34.5,-50 -13.5,7 -2,27 L 335,74 283.5,23.5 l -30.5,4 -13,28 12,41.5 -37,3 -37.5,-41.5 -26,4 L 143,87 81.5,69.5 54,88 l 33,28.5 14,26.5 -30,-1 -1,22 21,17.5 37,4.5 z"
       id="path1" /><path
       style="opacity:1;fill:none;fill-opacity:1;stroke:#000000;stroke-width:6"
       d="M 168.64436,383.73009 191.5,384 219,363 l 23.5,-54.5 46.49977,-18.26591"
       id="path8" /><path
       style="display:inline;fill:#ffe905;fill-opacity:1;stroke:#000000;stroke-width:6"
       d="m 318.53063,240.15549 33.71937,13.42311 55.9488,-5.04139 26.42399,33.45087 -35.59108,7.99264 -28.44732,5.99502 -27.98038,6.52937 -25.27058,-12.32111 -17.59997,8.77103 -21.07613,-23.0478 -1.10151,-14.11017 19.32909,-4.64909 10.28755,-11.78663 z"
       id="path2" /><path
       style="fill:none;fill-opacity:1;stroke:#000000;stroke-width:6"
       d="m 280.26167,266.49973 48.74543,6.12988 63.00055,1.81746 40.6516,6.90023"
       id="path3" /><path
       style="fill:#000000;fill-opacity:1;stroke:#000000;stroke-width:6.58569"
       d="m 199.03064,170.23303 34.29675,29.32266 1.63318,11.61841 -37.56311,5.53258 -14.69861,-24.34334 z"
       id="path5" /><path
       style="opacity:1;fill:none;fill-opacity:1;stroke:#000000;stroke-width:6"
       d="m 266.14432,192.93391 25.23915,7.61502 L 318.5,226.5 l 33.98295,26.9859"
       id="path12" /><path
       style="opacity:1;fill:#f3f3f3;fill-opacity:1;stroke:#000000;stroke-width:6"
       d="m 167.88728,154.28412 34.5,-2.5 45,39.5 19.5,2.5 -3,-28.5 -17.5,-2.5 -22.5,-30 -34,-10 -21.5,14 z"
       id="path4" /><path
       style="fill:none;fill-opacity:1;stroke:#000000;stroke-width:6"
       d="m 214.6107,429.41624 4.53314,-67.54622"
       id="path9" /><path
       style="fill:none;fill-opacity:1;stroke:#000000;stroke-width:6"
       d="M 344.11522,303.42893 332.97918,359.5 352,434 l -2.90625,36.3125"
       id="path11" /></g></svg>
